<svg xmlns="http://www.w3.org/2000/svg" width="12000" height="12000" viewBox="0 0 9000 9000" preserveAspectRatio="xMidYMid meet" xmlns:v="https://vecta.io/nano"><path d="M4397 .7c-62.9 1.6-116.6 3.8-167 6.8C3539.7 48.4 2873.4 246 2274 587.8c-589.6 336.1-1097.7 803-1483.1 1362.7-398.7 578.9-655 1240.3-749.8 1935.5C18.7 4049.4 5.7 4211.5 1 4382.5-.3 4430-.3 4569.7 1 4617c9.2 337.9 52.6 657.4 133 979 183.5 734.3 553 1413.4 1072 1970.5 72.8 78.1 163.6 168.6 240.5 239.6 324.6 299.6 688 548.3 1082.3 740.8 549.2 268 1147.2 420.5 1759.2 448.6 70.9 3.2 89.4 3.7 182.7 4.2 116 .7 185.5-.9 282.3-6.2 802.9-44.5 1572.4-301 2241-746.8C7734.3 7753 8314.3 7049.4 8655.5 6231c202.1-484.7 316.7-999 340.5-1527.5 3.1-70.9 3.5-91.7 3.5-203.5s-.4-132.6-3.5-203.5c-31.7-704.6-224.7-1382.4-568.3-1995.5-172.3-307.5-382.3-596-623.6-857-83.1-89.8-183.8-189.7-274.1-272C6898.6 596.9 6121.2 214.6 5284.5 67.6 5064.3 28.9 4848.2 7.4 4616 1c-30.4-.8-190.8-1.1-219-.3zm275.5 1801.9c45.1 5.5 89.3 24.3 125 53.1 11.9 9.6 32.4 30.4 41.7 42.4 23.4 30.2 41.6 68.4 49.2 103.9 6.4 29.5 6 11.9 6.3 263.5l.4 229 25.7 6.9c14.1 3.8 28.4 8.3 31.7 9.9 10.6 5.3 55.7 39.6 96 73.2l53 44 83.5 71.4 98.5 89.1 38 36c118.6 111.8 213.5 211.9 293.8 310l37 44.8c26.1 31.4 36.5 44.7 67.6 86.2 33.9 45.2 57.3 79.3 109.8 160 32 49.1 77.2 128.4 95.5 167.4 9.6 20.4 37.7 85.4 48.4 111.8 20.4 50.6 36.8 101.9 50 156.8 2.4 10.2 5.8 23.4 7.4 29.4 1.6 6.1 3.9 17.1 5 24.5 1.1 7.5 2.9 18.5 4 24.6 2.9 16.4 3.7 23.7 6.7 57.8 2.3 27.4 2.7 36.3 2.7 73.7.1 26.7-.4 47.9-1.2 57-4.7 54.1-11.3 93.3-22.8 135.5-15.1 55.4-35.4 112.2-59.4 166-28.3 63.5-56 116.6-85.4 164l-19.6 32c-15.1 25.2-33 52.6-50.5 77l-23 32.5c-10.4 15-37.1 50.2-52 68.6-8 9.8-22 27.8-31.2 39.9-20.2 26.7-29.7 38.6-42.3 53l-23.5 27.5c-19.2 22.8-45.5 52.7-61 69.5l-22.5 25c-32.5 37.8-102.7 109.9-161.2 165.7-24.5 23.3-77.7 71.5-83.6 75.7-1.9 1.3-6.1 3.2-9.4 4.2-5.8 1.8-13.5 1.9-205.9 1.9H4895v253 253.1l266.3-.4 282.7-2.5c50-6.5 90.3-17.3 132-35.4 46-20 85.8-45.9 129.5-84.3 90.8-79.8 199-186.1 280.9-276 14.9-16.4 19.1-20.3 24.1-22.6 2.2-.9 31.2-9.6 64.5-19.2l261.5-75.7 321.5-93 344-99.5 304.5-88.3 81-23.6h10c9.4-.1 10.5.1 16.7 3.2 7.4 3.6 14.9 10.6 18.1 16.7 4.8 9.5 4.7 4.3 4.7 164.1l-2 156.5c-4.1 13.2-11.6 20.9-27 27.5-45.3 19.5-107.4 49.3-152.5 73.2-168.4 89.1-293.9 183.3-362.3 271.9-20.1 25.9-64.8 90.9-102.4 148.8L6674 5999c-108.1 173.1-150.1 237.4-206.1 316.1-168.2 236.2-321.9 371.7-495 436.2-64.6 24.1-130.3 37.3-202.9 40.7-29.4 1.4-2376.5 1.4-2419.5 0-219-7-423.4-57.7-617-152.9-213.6-105-398.4-258.4-541.7-449.6-173.3-231.3-276.4-507.2-297.2-795.5-2.4-33.2-3.6-65-3.8-106-.3-37.5-.2-38.7 1.9-44.3 4.6-12.1 13.9-20.9 26.2-24.8 6.2-1.9 15.2-1.9 665.1-1.9l665.3 2c8.7 2.7 17.3 9.2 22.5 17 8.1 12.1 8.8 18.5 6.3 54-3.4 47.9 3.2 102.5 18.3 152.2 15.3 50.2 44.1 106.9 75.2 147.9 25.3 33.4 57.7 65.8 89.9 89.9 73.4 54.8 156.1 85.6 247.5 92 9.4.6 132.1 1 346.3 1H4387v-253-253h-322.8c-292 0-323.4-.2-328.3-1.6-11.2-3.3-19.9-10.9-25.3-22.3-2.8-6-3.1-7.5-3.1-16.6 0-7.3.5-11.3 1.8-14.7 1-2.6 13.1-21.1 26.9-41 81.5-118.1 156.2-236.9 228.3-363.3 40.5-71 61.9-110.7 92.9-172.5 70.2-139.8 111.4-243.5 148-372.5 13.8-48.8 22.7-94.5 29.5-152 7.1-59.7 9.5-103.5 9.5-173 0-52.1-.6-70.5-3.9-113.5l-2-29.5c-.9-17.4-4.3-52.5-8-84.5l-5-43.5c-2.4-21.3-5.8-42.7-14.6-92.5-12.5-70.8-20.6-110.1-36.4-176.5-31.7-132.6-98.6-344.7-154.5-490l-15.2-40.5c-12-32.6-23.6-61.9-37.3-94l-18.5-44c-19.5-47-67.4-154.8-80.4-180.8-4.6-9.2-11.8-24.4-16.1-33.7-15.9-34.9-28.9-62.2-49.5-104l-24.2-50c-1.7-3.8-20.1-38.4-41-76.8-47.5-87.5-43.8-80.1-43.8-87.3.1-14.1 11.1-25.9 24-25.7 4 0 71.9 18.1 251.5 66.8l249.5 67.3c1.9.2 16.6 4.2 32.5 8.9l134.6 37.3c.5 0 .9-65.5.9-151.8l1-163.2c3.7-40.5 15.9-78.4 36.2-112.1s52.5-66.2 85.3-86.2c49.2-29.9 105.8-42.1 163-35.1zm-1211.2 973.2c10.2 5.1 15.1 11.1 22.6 28.3 68.4 155.7 120.4 290.1 166.4 429.4 91.6 277.8 137.6 519.8 134.4 707.5-1.9 108.2-15.1 179.7-51.7 279.8-37.6 103.1-101.7 234.2-178.9 366.2l-26.4 46c-21.2 37.8-37.5 63.9-43.3 68.9-4.5 4-10 6.8-17.1 8.6-5 1.3-77.1 1.5-611.3 1.5-544.1 0-606.2-.2-611.5-1.6-15.4-4-26.6-16.2-29.5-32.2-1.3-7.3-.1-15 3.3-21.7 5.1-10.1-46.9 71.4 1060.5-1660.7l137.5-212.9c7.9-7.8 16.6-11 29.3-10.6 7.9.2 10 .7 15.7 3.5z"/></svg>