<svg xmlns="http://www.w3.org/2000/svg" viewBox="0 0 248 204" xmlns:v="https://vecta.io/nano"><path d="M221.95 51.29l.15 6.53c0 66.73-50.8 143.69-143.69 143.69v-.04c-27.44.04-54.31-7.82-77.41-22.64 3.99.48 8 .72 12.02.73 22.74.02 44.83-7.61 62.72-21.66-21.61-.41-40.56-14.5-47.18-35.07a50.34 50.34 0 0 0 22.8-.87 50.51 50.51 0 0 1-40.51-49.5v-.64a50.18 50.18 0 0 0 22.92 6.32C11.58 63.31 4.74 33.79 18.14 10.71c25.64 31.55 63.47 50.73 104.08 52.76-4.07-17.54 1.49-35.92 14.61-48.25 20.34-19.12 52.33-18.14 71.45 2.19 11.31-2.23 22.15-6.38 32.07-12.26a50.69 50.69 0 0 1-22.2 27.93c10.01-1.18 19.79-3.86 29-7.95-6.78 10.16-15.32 19.01-25.2 26.16z"/></svg>